<svg width="28" height="22" viewBox="0 0 28 22" fill="none" xmlns="http://www.w3.org/2000/svg">
<g clip-path="url(#clip0_5442_22720)">
<path d="M5.09205 21.3871V19.9649C5.09205 19.4209 4.76068 19.0647 4.19182 19.0647C3.9074 19.0647 3.59812 19.1586 3.38549 19.4679C3.21981 19.2083 2.98233 19.0647 2.6261 19.0647C2.38862 19.0647 2.15114 19.1365 1.96336 19.3961V19.1116H1.46631V21.3871H1.96336V20.1306C1.96336 19.7274 2.17599 19.5369 2.50736 19.5369C2.83873 19.5369 3.00442 19.7495 3.00442 20.1306V21.3871H3.50147V20.1306C3.50147 19.7274 3.73895 19.5369 4.04547 19.5369C4.37684 19.5369 4.54252 19.7495 4.54252 20.1306V21.3871H5.09205ZM12.465 19.1116H11.6587V18.4241H11.1616V19.1116H10.7115V19.5618H11.1616V20.6056C11.1616 21.1275 11.3743 21.434 11.9431 21.434C12.1557 21.434 12.3932 21.3622 12.5589 21.2683L12.4153 20.8403C12.2717 20.9342 12.106 20.959 11.9873 20.959C11.7498 20.959 11.6559 20.8154 11.6559 20.5807V19.5618H12.4623V19.1116H12.465ZM16.6845 19.0619C16.4 19.0619 16.2095 19.2055 16.0908 19.3933V19.1089H15.5937V21.3843H16.0908V20.103C16.0908 19.7247 16.2564 19.5093 16.5657 19.5093C16.6596 19.5093 16.7783 19.5341 16.875 19.5562L17.0186 19.0813C16.9192 19.0619 16.7784 19.0619 16.6845 19.0619ZM10.3084 19.2994C10.0709 19.1337 9.73951 19.0619 9.38328 19.0619C8.81443 19.0619 8.43612 19.3464 8.43612 19.7965C8.43612 20.1748 8.72054 20.3902 9.2176 20.4592L9.45508 20.4841C9.71465 20.531 9.85825 20.6028 9.85825 20.7216C9.85825 20.8872 9.66771 21.006 9.33634 21.006C9.00497 21.006 8.74263 20.8872 8.57695 20.7685L8.33947 21.1468C8.59904 21.3373 8.95526 21.4312 9.31149 21.4312C9.97423 21.4312 10.3553 21.122 10.3553 20.6967C10.3553 20.2935 10.046 20.0809 9.57382 20.0091L9.33634 19.9843C9.12371 19.9594 8.95803 19.9125 8.95803 19.7716C8.95803 19.6059 9.12371 19.5121 9.38604 19.5121C9.67047 19.5121 9.9549 19.6308 10.0985 19.7026L10.3084 19.2994ZM23.5328 19.0619C23.2483 19.0619 23.0578 19.2055 22.9391 19.3933V19.1089H22.442V21.3843H22.9391V20.103C22.9391 19.7247 23.1047 19.5093 23.414 19.5093C23.5079 19.5093 23.6267 19.5341 23.7233 19.5562L23.8669 19.0868C23.7703 19.0619 23.6294 19.0619 23.5328 19.0619ZM17.1815 20.2493C17.1815 20.9369 17.6565 21.434 18.391 21.434C18.7224 21.434 18.9599 21.3622 19.1973 21.1744L18.9599 20.7713C18.7693 20.9149 18.5816 20.9839 18.3662 20.9839C17.963 20.9839 17.6786 20.6995 17.6786 20.2493C17.6786 19.8213 17.963 19.5369 18.3662 19.5148C18.5788 19.5148 18.7693 19.5866 18.9599 19.7274L19.1973 19.3243C18.9599 19.1337 18.7224 19.0647 18.391 19.0647C17.6565 19.0619 17.1815 19.5618 17.1815 20.2493ZM21.7793 20.2493V19.1116H21.2822V19.3961C21.1165 19.1834 20.879 19.0647 20.5698 19.0647C19.9291 19.0647 19.4321 19.5618 19.4321 20.2493C19.4321 20.9369 19.9291 21.434 20.5698 21.434C20.9011 21.434 21.1386 21.3153 21.2822 21.1026V21.3871H21.7793V20.2493ZM19.954 20.2493C19.954 19.8462 20.2135 19.5148 20.6416 19.5148C21.0447 19.5148 21.3292 19.8241 21.3292 20.2493C21.3292 20.6525 21.0447 20.9839 20.6416 20.9839C20.2163 20.959 19.954 20.6498 19.954 20.2493ZM14.0059 19.0619C13.3432 19.0619 12.8682 19.5369 12.8682 20.2466C12.8682 20.959 13.3432 21.4312 14.0307 21.4312C14.3621 21.4312 14.6935 21.3373 14.9558 21.122L14.7183 20.7657C14.5278 20.9093 14.2903 21.0032 14.0556 21.0032C13.7463 21.0032 13.4398 20.8596 13.368 20.4592H15.0497C15.0497 20.3874 15.0497 20.3405 15.0497 20.2687C15.0718 19.5369 14.6438 19.0619 14.0059 19.0619ZM14.0059 19.49C14.3152 19.49 14.5278 19.6805 14.5747 20.034H13.3901C13.437 19.7274 13.6497 19.49 14.0059 19.49ZM26.3549 20.2493V18.2114H25.8579V19.3961C25.6922 19.1834 25.4547 19.0647 25.1454 19.0647C24.5048 19.0647 24.0077 19.5618 24.0077 20.2493C24.0077 20.9369 24.5048 21.434 25.1454 21.434C25.4768 21.434 25.7143 21.3153 25.8579 21.1026V21.3871H26.3549V20.2493ZM24.5296 20.2493C24.5296 19.8462 24.7892 19.5148 25.2172 19.5148C25.6204 19.5148 25.9048 19.8241 25.9048 20.2493C25.9048 20.6525 25.6204 20.9839 25.2172 20.9839C24.7892 20.959 24.5296 20.6498 24.5296 20.2493ZM7.88936 20.2493V19.1116H7.3923V19.3961C7.22662 19.1834 6.98914 19.0647 6.67986 19.0647C6.03921 19.0647 5.54216 19.5618 5.54216 20.2493C5.54216 20.9369 6.03921 21.434 6.67986 21.434C7.01123 21.434 7.24871 21.3153 7.3923 21.1026V21.3871H7.88936V20.2493ZM6.04197 20.2493C6.04197 19.8462 6.30154 19.5148 6.72956 19.5148C7.13273 19.5148 7.41716 19.8241 7.41716 20.2493C7.41716 20.6525 7.13273 20.9839 6.72956 20.9839C6.30154 20.959 6.04197 20.6498 6.04197 20.2493Z" fill="black"/>
<path d="M17.6099 1.83154H10.1431V15.2465H17.6099V1.83154Z" fill="#FF5A00"/>
<path d="M10.6399 8.53863C10.6399 5.81311 11.9212 3.39411 13.8873 1.83115C12.4404 0.693451 10.6151 0.00585938 8.62408 0.00585938C3.90758 0.00585938 0.0913086 3.82213 0.0913086 8.53863C0.0913086 13.2551 3.90758 17.0714 8.62408 17.0714C10.6151 17.0714 12.4404 16.3838 13.8873 15.2461C11.9184 13.7052 10.6399 11.2641 10.6399 8.53863Z" fill="#EB001B"/>
<path d="M27.6832 8.53863C27.6832 13.2551 23.867 17.0714 19.1505 17.0714C17.1595 17.0714 15.3342 16.3838 13.8872 15.2461C15.8782 13.6804 17.1346 11.2641 17.1346 8.53863C17.1346 5.81311 15.8533 3.39411 13.8872 1.83115C15.3314 0.693451 17.1567 0.00585938 19.1477 0.00585938C23.867 0.00585938 27.6832 3.84699 27.6832 8.53863Z" fill="#F79E1B"/>
</g>
<defs>
<clipPath id="clip0_5442_22720">
<rect width="27.592" height="21.4286" fill="white" transform="translate(0.0913086 0.00488281)"/>
</clipPath>
</defs>
</svg>
