<svg width="65" height="18" viewBox="0 0 65 18" fill="none" xmlns="http://www.w3.org/2000/svg">
<g clip-path="url(#clip0_5442_22694)">
<path d="M24.322 3.51074H20.7692C20.5261 3.51074 20.3194 3.68737 20.2814 3.92737L18.8445 13.0375C18.816 13.2172 18.9552 13.3793 19.1375 13.3793H20.8336C21.0768 13.3793 21.2835 13.2027 21.3214 12.9622L21.709 10.505C21.7464 10.2645 21.9536 10.0879 22.1962 10.0879H23.3209C25.6612 10.0879 27.0118 8.95542 27.3646 6.71126C27.5235 5.72944 27.3713 4.95801 26.9116 4.41776C26.4066 3.82451 25.511 3.51074 24.322 3.51074ZM24.7318 6.83802C24.5375 8.11282 23.5635 8.11282 22.6217 8.11282H22.0856L22.4617 5.73204C22.484 5.58814 22.6087 5.48217 22.7542 5.48217H22.9999C23.6414 5.48217 24.2466 5.48217 24.5594 5.84789C24.7458 6.06607 24.803 6.39022 24.7318 6.83802Z" fill="#253B80"/>
<path d="M34.9418 6.79721H33.2405C33.0955 6.79721 32.9703 6.90318 32.948 7.04708L32.8727 7.52292L32.7537 7.35045C32.3854 6.81591 31.5641 6.63721 30.7444 6.63721C28.8644 6.63721 27.2586 8.0611 26.9459 10.0585C26.7833 11.0549 27.0145 12.0076 27.5797 12.672C28.0981 13.2829 28.8399 13.5375 29.7225 13.5375C31.2373 13.5375 32.0773 12.5634 32.0773 12.5634L32.0015 13.0362C31.9729 13.2169 32.1121 13.379 32.2934 13.379H33.8259C34.0695 13.379 34.2753 13.2024 34.3137 12.9619L35.2332 7.13903C35.2623 6.9598 35.1236 6.79721 34.9418 6.79721ZM32.5703 10.1084C32.4062 11.0803 31.6347 11.7328 30.6508 11.7328C30.1568 11.7328 29.762 11.5744 29.5085 11.2741C29.2571 10.9759 29.1615 10.5515 29.2415 10.0788C29.3947 9.11513 30.1792 8.44136 31.148 8.44136C31.6311 8.44136 32.0238 8.60188 32.2825 8.90474C32.5418 9.21071 32.6446 9.63773 32.5703 10.1084Z" fill="#253B80"/>
<path d="M44.0027 6.79688H42.2931C42.13 6.79688 41.9768 6.87791 41.8843 7.0135L39.5264 10.4867L38.5269 7.14908C38.464 6.94025 38.2713 6.79688 38.0531 6.79688H36.3731C36.169 6.79688 36.0271 6.99636 36.0921 7.18856L37.9752 12.7148L36.2048 15.214C36.0656 15.4109 36.2058 15.6816 36.4464 15.6816H38.1539C38.316 15.6816 38.4677 15.6026 38.5596 15.4696L44.2458 7.26181C44.382 7.06545 44.2422 6.79688 44.0027 6.79688Z" fill="#253B80"/>
<path d="M49.6628 3.51074H46.1095C45.8669 3.51074 45.6602 3.68737 45.6223 3.92737L44.1854 13.0375C44.1568 13.2172 44.296 13.3793 44.4773 13.3793H46.3007C46.47 13.3793 46.615 13.2557 46.6415 13.0874L47.0493 10.505C47.0867 10.2645 47.2939 10.0879 47.5365 10.0879H48.6607C51.0015 10.0879 52.3516 8.95542 52.7049 6.71126C52.8643 5.72944 52.7111 4.95801 52.2513 4.41776C51.7469 3.82451 50.8519 3.51074 49.6628 3.51074ZM50.0726 6.83802C49.8789 8.11282 48.9049 8.11282 47.9625 8.11282H47.4269L47.8036 5.73204C47.8259 5.58814 47.9495 5.48217 48.0955 5.48217H48.3412C48.9823 5.48217 49.588 5.48217 49.9007 5.84789C50.0872 6.06607 50.1438 6.39022 50.0726 6.83802Z" fill="#179BD7"/>
<path d="M60.2818 6.79721H58.5816C58.4356 6.79721 58.3114 6.90318 58.2896 7.04708L58.2143 7.52292L58.0948 7.35045C57.7265 6.81591 56.9057 6.63721 56.086 6.63721C54.206 6.63721 52.6008 8.0611 52.2881 10.0585C52.126 11.0549 52.3561 12.0076 52.9213 12.672C53.4408 13.2829 54.1816 13.5375 55.0642 13.5375C56.579 13.5375 57.419 12.5634 57.419 12.5634L57.3431 13.0362C57.3145 13.2169 57.4538 13.379 57.6361 13.379H59.1681C59.4107 13.379 59.6174 13.2024 59.6553 12.9619L60.5753 7.13903C60.6034 6.9598 60.4642 6.79721 60.2818 6.79721ZM57.9104 10.1084C57.7473 11.0803 56.9748 11.7328 55.9909 11.7328C55.4979 11.7328 55.1021 11.5744 54.8486 11.2741C54.5971 10.9759 54.5026 10.5515 54.5816 10.0788C54.7358 9.11513 55.5192 8.44136 56.4881 8.44136C56.9712 8.44136 57.3639 8.60188 57.6226 8.90474C57.8829 9.21071 57.9857 9.63773 57.9104 10.1084Z" fill="#179BD7"/>
<path d="M62.2876 3.76016L60.8294 13.037C60.8008 13.2168 60.9401 13.3789 61.1214 13.3789H62.5873C62.831 13.3789 63.0377 13.2022 63.0751 12.9617L64.5131 3.8521C64.5416 3.67236 64.4024 3.50977 64.2211 3.50977H62.5795C62.4346 3.51029 62.3099 3.61626 62.2876 3.76016Z" fill="#179BD7"/>
<path d="M4.09105 15.1501L4.36274 13.4244L3.75755 13.4104H0.867676L2.87599 0.67633C2.88222 0.637889 2.90248 0.602044 2.93209 0.57659C2.9617 0.551135 2.99962 0.537109 3.0391 0.537109H7.91183C9.5295 0.537109 10.6459 0.873733 11.2287 1.53815C11.502 1.84984 11.676 2.17555 11.7601 2.53399C11.8485 2.9101 11.85 3.35945 11.7638 3.9075L11.7575 3.9475V4.29867L12.0308 4.45347C12.2609 4.57555 12.4438 4.71529 12.584 4.87529C12.8178 5.14179 12.969 5.48049 13.0329 5.88204C13.0988 6.29503 13.077 6.78646 12.969 7.34282C12.8443 7.98282 12.6427 8.54023 12.3705 8.99633C12.1201 9.41659 11.8012 9.76516 11.4225 10.0353C11.0609 10.2919 10.6313 10.4867 10.1456 10.6114C9.67495 10.734 9.13833 10.7958 8.54975 10.7958H8.17053C7.89937 10.7958 7.63599 10.8935 7.42924 11.0685C7.22196 11.2472 7.08482 11.4914 7.04274 11.7584L7.01417 11.9137L6.53417 14.9553L6.51235 15.067C6.50664 15.1023 6.49677 15.12 6.48222 15.1319C6.46924 15.1428 6.45053 15.1501 6.43235 15.1501H4.09105Z" fill="#253B80"/>
<path d="M12.2895 3.98779C12.275 4.08078 12.2584 4.17585 12.2396 4.27351C11.5971 7.57273 9.39861 8.71247 6.59082 8.71247H5.16121C4.81783 8.71247 4.52848 8.96182 4.47497 9.30052L3.74302 13.9426L3.53575 15.2584C3.50095 15.4808 3.67238 15.6813 3.89679 15.6813H6.43238C6.73264 15.6813 6.9877 15.4631 7.03497 15.167L7.05991 15.0382L7.53731 12.0086L7.56796 11.8423C7.61471 11.5452 7.8703 11.327 8.17056 11.327H8.54978C11.0064 11.327 12.9295 10.3296 13.4916 7.44338C13.7264 6.23766 13.6048 5.23091 12.9835 4.52286C12.7955 4.30935 12.5622 4.13221 12.2895 3.98779Z" fill="#179BD7"/>
<path d="M11.6169 3.71942C11.5188 3.69085 11.4175 3.66487 11.3136 3.6415C11.2092 3.61864 11.1021 3.59838 10.992 3.58072C10.6066 3.51838 10.1842 3.48877 9.73175 3.48877H5.91253C5.81851 3.48877 5.72915 3.51007 5.64915 3.54851C5.47305 3.63319 5.34214 3.79994 5.31045 4.00409L4.49799 9.15007L4.47461 9.3002C4.52812 8.9615 4.81747 8.71215 5.16084 8.71215H6.59045C9.39825 8.71215 11.5967 7.57189 12.2393 4.27319C12.2585 4.17552 12.2746 4.08046 12.2892 3.98747C12.1266 3.90124 11.9505 3.82747 11.7608 3.76461C11.7141 3.74903 11.6658 3.73396 11.6169 3.71942Z" fill="#222D65"/>
<path d="M5.31069 4.00436C5.34238 3.80021 5.47328 3.63345 5.64939 3.5493C5.72991 3.51086 5.81874 3.48956 5.91276 3.48956H9.73199C10.1845 3.48956 10.6068 3.51917 10.9922 3.58151C11.1024 3.59917 11.2094 3.61943 11.3138 3.64229C11.4177 3.66566 11.519 3.69164 11.6172 3.72021C11.666 3.73475 11.7143 3.74982 11.7616 3.76488C11.9512 3.82774 12.1273 3.90203 12.2899 3.98774C12.4811 2.76852 12.2884 1.93839 11.6291 1.1867C10.9024 0.359169 9.59069 0.00488281 7.91225 0.00488281H3.03952C2.69666 0.00488281 2.40419 0.254234 2.35121 0.593454L0.321595 13.4584C0.281595 13.7129 0.477959 13.9425 0.734582 13.9425H3.74289L4.49822 9.15034L5.31069 4.00436Z" fill="#253B80"/>
</g>
<defs>
<clipPath id="clip0_5442_22694">
<rect width="64.4156" height="17.1429" fill="white" transform="translate(0.316406 0.00488281)"/>
</clipPath>
</defs>
</svg>
